<?xml version="1.0" encoding="UTF-8" standalone="no"?>
<svg width="112px" height="30px" viewBox="0 0 112 30" version="1.1" xmlns="http://www.w3.org/2000/svg" xmlns:xlink="http://www.w3.org/1999/xlink" xmlns:sketch="http://www.bohemiancoding.com/sketch/ns">
    <!-- Generator: Sketch 3.3.3 (12072) - http://www.bohemiancoding.com/sketch -->
    <title>img_logo_bonuz_header</title>
    <desc>Created with Sketch.</desc>
    <defs>
        <path id="path-1" d="M12.0717188,5.24480412 L2.81728125,5.24480412 C1.37090625,5.24480412 0.17303125,4.05927835 0.17303125,2.62846392 C0.17303125,1.19851546 1.37090625,0.0114742268 2.81728125,0.0114742268 L18.3526875,0.0114742268 C19.7990625,0.0114742268 20.9960625,1.19851546 20.9960625,2.62846392 C20.9960625,3.32276289 20.7475625,3.97874227 20.2512187,4.46845361 L9.09671875,15.7140619 L18.3526875,15.7140619 C19.7990625,15.7140619 20.9960625,16.8995876 20.9960625,18.3301856 C20.9960625,19.7616495 19.7990625,20.9471753 18.3526875,20.9471753 L2.81728125,20.9471753 C1.37090625,20.9471753 0.17303125,19.7616495 0.17303125,18.3301856 C0.17303125,17.6358866 0.420875,16.9807732 0.917,16.4901959 L12.0717188,5.24480412"></path>
    </defs>
    <g id="Ganhe-bônus" stroke="none" stroke-width="1" fill="none" fill-rule="evenodd" sketch:type="MSPage">
        <g id="ganhe---proposta-copy" sketch:type="MSArtboardGroup" transform="translate(-1897.000000, -1020.000000)">
            <g id="img_logo_bonuz_header" sketch:type="MSLayerGroup" transform="translate(1897.000000, 1020.000000)">
                <path d="M0,2.6369802 C0,1.19498763 1.24695802,0 2.7504279,0 C4.25435421,0 5.5008558,1.19498763 5.5008558,2.6369802 L5.5008558,9.3503078 C7.09081856,8.44542519 8.98111015,7.90897157 11.0005705,7.90897157 C17.0594081,7.90897157 22,12.6466971 22,18.4551421 C22,24.2635871 17.0594081,29 11.0005705,29 C4.01016587,28.9306461 0.105206378,23.2383744 0,18.4551421 L0,2.6369802 L0,2.6369802 Z M11.0005705,23.7280086 C14.0508708,23.7280086 16.5000571,21.379602 16.5000571,18.4551421 C16.5000571,15.5293696 14.0508708,13.1809629 11.0005705,13.1809629 C7.94935737,13.1809629 5.5008558,15.5293696 5.5008558,18.4551421 C5.5008558,21.379602 7.94935737,23.7280086 11.0005705,23.7280086 L11.0005705,23.7280086 Z" id="Fill-1" fill="#FFFFFF" sketch:type="MSShapeGroup"></path>
                <path d="M55.9998859,8 C62.0596363,8 67,12.7172776 67,18.5006535 L67,26.3748366 C67,27.8108234 65.7534984,29 64.2500285,29 C62.7465586,29 61.5000571,27.8108234 61.5000571,26.3748366 L61.5000571,18.5006535 C61.5000571,15.5875086 59.0504144,13.2492376 55.9998859,13.2492376 C52.9479881,13.2492376 50.4999429,15.5875086 50.4999429,18.5006535 L50.4999429,26.3748366 C50.4999429,27.8108234 49.2534414,29 47.7499715,29 C46.2465016,29 45,27.8108234 45,26.3748366 L45,18.5006535 C45,16.6137425 45.9174179,8.34962968 55.9998859,8" id="Fill-2" fill="#FFFFFF" sketch:type="MSShapeGroup"></path>
                <path d="M77.9992012,29 C71.9399865,29 67,24.2840294 67,18.5006535 L67,10.6249455 C67,9.19070144 68.2449816,8 69.748545,8 C71.2537061,8 72.5002853,9.19070144 72.5002853,10.6249455 L72.5002853,18.5006535 C72.5002853,21.4124914 74.9493957,23.7507624 77.9992012,23.7507624 C81.0499196,23.7507624 83.4994865,21.4124914 83.4994865,18.5006535 L83.4994865,10.6249455 C83.4994865,9.19070144 84.7462939,8 86.250542,8 C87.7547902,8 89,9.19070144 89,10.6249455 L89,18.5006535 C89,20.3862575 88.082525,28.6501525 77.9992012,29" id="Fill-3" fill="#FFFFFF" sketch:type="MSShapeGroup"></path>
                <path d="M34,8 C40.0590822,8 45,12.7161349 45,18.4997822 C45,24.2825582 40.0590822,29 34,29 C27.941146,29 23,24.2825582 23,18.4997822 C23,12.7161349 27.941146,8 34,8 L34,8 Z M34,23.75 C37.0505352,23.75 39.5,21.4104468 39.5,18.4997822 C39.5,15.5891175 37.0505352,13.2495644 34,13.2495644 C30.9494648,13.2495644 28.4990872,15.5891175 28.4990872,18.4997822 C28.4990872,21.4104468 30.9494648,23.75 34,23.75 L34,23.75 Z" id="Fill-4" fill="#FFFFFF" sketch:type="MSShapeGroup"></path>
                <path d="M108.652563,23.4035321 L100.304746,23.4035321 L111.049788,12.6205788 C111.662524,12.0187616 112,11.1939487 112,10.2983471 C112,8.47977816 110.498118,7 108.652563,7 L92.348126,7 C90.5021111,7 89,8.47977816 89,10.2983471 C89,12.1166898 90.5021111,13.5962418 92.348126,13.5962418 L100.694795,13.5962418 L89.9490642,24.3796474 C89.3370165,24.9814645 89,25.8058251 89,26.7012006 C89,28.5202218 90.5021111,30 92.348126,30 L108.652563,30 C110.498118,30 112,28.5202218 112,26.7012006 C112,24.8828579 110.498118,23.4035321 108.652563,23.4035321" id="Fill-16" fill="#FFFFFF" sketch:type="MSShapeGroup"></path>
                <g id="Group-38" transform="translate(90.000000, 8.000000)">
                    <mask id="mask-2" sketch:name="Clip 18" fill="white">
                        <use xlink:href="#path-1"></use>
                    </mask>
                    <g id="Clip-18"></g>
                    <path d="M7.44340625,52.0377835 L4.88753125,54.5673093 L-46.0516875,4.15345361 L-43.4955937,1.62392784 L7.44340625,52.0377835" id="Fill-17" fill="#33AA48" sketch:type="MSShapeGroup" mask="url(#mask-2)"></path>
                    <path d="M9.99928125,49.5082577 L7.44340625,52.0377835 L-43.4955937,1.62392784 L-40.9397187,-0.905597938 L9.99928125,49.5082577" id="Fill-19" fill="#CA2A2A" sketch:type="MSShapeGroup" mask="url(#mask-2)"></path>
                    <path d="M12.5551562,46.978732 L9.99928125,49.5082577 L-40.9397187,-0.905597938 L-38.3838437,-3.43534021 L12.5551562,46.978732" id="Fill-20" fill="#DF512E" sketch:type="MSShapeGroup" mask="url(#mask-2)"></path>
                    <path d="M15.11125,44.4492062 L12.5551562,46.978732 L-38.3838437,-3.43534021 L-35.8279687,-5.96486598 L15.11125,44.4492062" id="Fill-21" fill="#E87F35" sketch:type="MSShapeGroup" mask="url(#mask-2)"></path>
                    <path d="M17.667125,41.9194639 L15.11125,44.4492062 L-35.8279687,-5.96486598 L-33.2720937,-8.49439175 L17.667125,41.9194639" id="Fill-22" fill="#21AA6D" sketch:type="MSShapeGroup" mask="url(#mask-2)"></path>
                    <path d="M20.223,39.3899381 L17.667125,41.9194639 L-33.2720937,-8.49439175 L-30.716,-11.0239175 L20.223,39.3899381" id="Fill-23" fill="#DF512E" sketch:type="MSShapeGroup" mask="url(#mask-2)"></path>
                    <path d="M22.778875,36.8604124 L20.223,39.3899381 L-30.716,-11.0239175 L-28.160125,-13.5536598 L22.778875,36.8604124" id="Fill-24" fill="#95B63E" sketch:type="MSShapeGroup" mask="url(#mask-2)"></path>
                    <path d="M25.33475,34.3308866 L22.778875,36.8604124 L-28.160125,-13.5536598 L-25.60425,-16.0831856 L25.33475,34.3308866" id="Fill-25" fill="#A42959" sketch:type="MSShapeGroup" mask="url(#mask-2)"></path>
                    <path d="M27.8908437,31.8011443 L25.33475,34.3308866 L-25.60425,-16.0831856 L-23.048375,-18.6127113 L27.8908437,31.8011443" id="Fill-26" fill="#CA2A2A" sketch:type="MSShapeGroup" mask="url(#mask-2)"></path>
                    <path d="M30.4467188,29.2716186 L27.8908438,31.8011443 L-23.048375,-18.6127113 L-20.4922812,-21.1422371 L30.4467188,29.2716186" id="Fill-27" fill="#E87F35" sketch:type="MSShapeGroup" mask="url(#mask-2)"></path>
                    <path d="M33.0025938,26.7420928 L30.4467188,29.2716186 L-20.4922812,-21.1422371 L-17.9364063,-23.6717629 L33.0025938,26.7420928" id="Fill-28" fill="#33AA48" sketch:type="MSShapeGroup" mask="url(#mask-2)"></path>
                    <path d="M35.5584688,24.212567 L33.0025938,26.7420928 L-17.9364063,-23.6717629 L-15.3805312,-26.2015052 L35.5584688,24.212567" id="Fill-29" fill="#CA2A2A" sketch:type="MSShapeGroup" mask="url(#mask-2)"></path>
                    <path d="M38.1143437,21.6830412 L35.5584687,24.212567 L-15.3805312,-26.2015052 L-12.8246563,-28.7310309 L38.1143437,21.6830412" id="Fill-30" fill="#DF512E" sketch:type="MSShapeGroup" mask="url(#mask-2)"></path>
                    <path d="M40.6704375,19.153299 L38.1143437,21.6830412 L-12.8246563,-28.7310309 L-10.2687812,-31.2605567 L40.6704375,19.153299" id="Fill-31" fill="#E87F35" sketch:type="MSShapeGroup" mask="url(#mask-2)"></path>
                    <path d="M43.2263125,16.6237732 L40.6704375,19.153299 L-10.2687812,-31.2605567 L-7.7126875,-33.7900825 L43.2263125,16.6237732" id="Fill-32" fill="#21AA6D" sketch:type="MSShapeGroup" mask="url(#mask-2)"></path>
                    <path d="M45.7821875,14.0942474 L43.2263125,16.6237732 L-7.7126875,-33.7900825 L-5.1568125,-36.3198247 L45.7821875,14.0942474" id="Fill-33" fill="#DF512E" sketch:type="MSShapeGroup" mask="url(#mask-2)"></path>
                    <path d="M48.3380625,11.5647216 L45.7821875,14.0942474 L-5.1568125,-36.3198247 L-2.6009375,-38.8493505 L48.3380625,11.5647216" id="Fill-34" fill="#95B63E" sketch:type="MSShapeGroup" mask="url(#mask-2)"></path>
                    <path d="M50.8941562,9.03519588 L48.3380625,11.5647216 L-2.6009375,-38.8493505 L-0.0450625,-41.3788763 L50.8941562,9.03519588" id="Fill-35" fill="#A42959" sketch:type="MSShapeGroup" mask="url(#mask-2)"></path>
                    <path d="M53.4500312,6.50545361 L50.8941562,9.03519588 L-0.0450625,-41.3788763 L2.51103125,-43.9084021 L53.4500312,6.50545361" id="Fill-36" fill="#CA2A2A" sketch:type="MSShapeGroup" mask="url(#mask-2)"></path>
                    <path d="M56.0059063,3.97592784 L53.4500312,6.50545361 L2.51103125,-43.9084021 L5.06690625,-46.4379278 L56.0059063,3.97592784" id="Fill-37" fill="#E87F35" sketch:type="MSShapeGroup" mask="url(#mask-2)"></path>
                </g>
            </g>
        </g>
    </g>
</svg>